<?xml version="1.0" encoding="utf-8"?>
<!-- Generator: Adobe Illustrator 16.0.0, SVG Export Plug-In . SVG Version: 6.00 Build 0)  -->
<!DOCTYPE svg PUBLIC "-//W3C//DTD SVG 1.1//EN" "http://www.w3.org/Graphics/SVG/1.1/DTD/svg11.dtd">
<svg version="1.1" id="Layer_1" xmlns="http://www.w3.org/2000/svg" xmlns:xlink="http://www.w3.org/1999/xlink" x="0px" y="0px"
	 width="23.249px" height="12.097px" viewBox="0 0 23.249 12.097" enable-background="new 0 0 23.249 12.097" xml:space="preserve">
<g id="Layer_1_5_">
	<g>
		<g>
			<path fill="#398369" d="M17.194,7.109c0.149,0.141,0.205,0.353,0.157,0.551c-0.055,0.196-0.212,0.354-0.41,0.401l-1.481,0.378
				l0.418,1.466c0.055,0.196,0,0.409-0.149,0.551c-0.142,0.149-0.354,0.205-0.551,0.149l-1.465-0.417l-0.377,1.48
				c-0.047,0.196-0.205,0.354-0.401,0.409c-0.048,0.008-0.103,0.016-0.15,0.016c-0.149,0-0.299-0.062-0.401-0.174l-1.063-1.087
				l-1.063,1.087c-0.142,0.15-0.354,0.204-0.551,0.157c-0.205-0.055-0.354-0.213-0.402-0.41l-0.377-1.479L7.46,10.605
				c-0.197,0.054-0.409,0-0.552-0.149c-0.149-0.142-0.204-0.354-0.149-0.552l0.417-1.465l-1.48-0.378
				c-0.197-0.048-0.354-0.205-0.41-0.403C5.239,7.462,5.295,7.25,5.444,7.108l1.087-1.062L5.444,4.981
				C5.295,4.84,5.239,4.627,5.286,4.431c0.056-0.196,0.213-0.354,0.41-0.402l1.48-0.378L6.759,2.186
				c-0.055-0.196,0-0.409,0.149-0.551C7.051,1.485,7.264,1.431,7.46,1.485l1.465,0.418l0.378-1.481
				c0.047-0.196,0.205-0.354,0.401-0.401c0.197-0.055,0.41,0,0.552,0.15l1.063,1.095l1.063-1.095c0.142-0.15,0.347-0.205,0.552-0.15
				c0.196,0.048,0.354,0.205,0.401,0.401l0.377,1.481l1.465-0.418c0.197-0.055,0.41,0,0.552,0.149
				c0.148,0.142,0.204,0.354,0.148,0.551l-0.417,1.466l1.481,0.378c0.197,0.048,0.354,0.205,0.41,0.401
				c0.047,0.196-0.008,0.409-0.158,0.552l-1.086,1.063L17.194,7.109z"/>
		</g>
	</g>
</g>
</svg>
