<?xml version="1.0" encoding="utf-8"?>
<!-- Generator: Adobe Illustrator 16.0.0, SVG Export Plug-In . SVG Version: 6.00 Build 0)  -->
<!DOCTYPE svg PUBLIC "-//W3C//DTD SVG 1.1//EN" "http://www.w3.org/Graphics/SVG/1.1/DTD/svg11.dtd">
<svg version="1.1" xmlns="http://www.w3.org/2000/svg" xmlns:xlink="http://www.w3.org/1999/xlink" x="0px" y="0px"
	 width="47.654px" height="47.641px" viewBox="0 0 47.654 47.641" enable-background="new 0 0 47.654 47.641" xml:space="preserve">
<g id="Layer_2" display="none">
	<rect x="-169.767" y="-23.977" display="inline" fill="#D8D8D8" width="130.042" height="131.043"/>
</g>
<g id="Layer_1">
	<g>
		<g>
			<path fill="#FFFFFF" d="M46.969,28.001c0.589,0.559,0.807,1.396,0.62,2.172c-0.217,0.775-0.837,1.396-1.613,1.582l-5.832,1.489
				l1.645,5.77c0.217,0.775,0,1.613-0.589,2.172c-0.559,0.589-1.396,0.807-2.172,0.589l-5.77-1.644l-1.489,5.832
				c-0.186,0.775-0.807,1.396-1.582,1.612c-0.186,0.031-0.403,0.062-0.59,0.062c-0.589,0-1.178-0.248-1.582-0.683l-4.188-4.281
				l-4.188,4.281c-0.559,0.59-1.396,0.807-2.172,0.62c-0.807-0.217-1.396-0.837-1.582-1.612l-1.489-5.832l-5.77,1.644
				c-0.776,0.218-1.613,0-2.172-0.589c-0.589-0.559-0.806-1.396-0.589-2.172l1.645-5.77l-5.832-1.489
				c-0.776-0.187-1.396-0.807-1.613-1.582c-0.187-0.775,0.031-1.613,0.62-2.172l4.28-4.188l-4.28-4.188
				c-0.589-0.559-0.807-1.396-0.62-2.172c0.217-0.775,0.837-1.396,1.613-1.582l5.832-1.489l-1.645-5.77
				C5.649,7.838,5.866,7,6.455,6.441c0.559-0.589,1.396-0.807,2.172-0.589l5.77,1.644l1.489-5.832
				c0.186-0.775,0.807-1.396,1.582-1.582c0.775-0.217,1.613,0,2.172,0.59l4.188,4.312l4.188-4.312
				c0.559-0.59,1.365-0.807,2.172-0.59c0.775,0.187,1.396,0.807,1.582,1.582l1.489,5.832l5.77-1.644
				c0.776-0.218,1.613,0,2.172,0.589C41.788,7,42.005,7.838,41.788,8.613l-1.645,5.77l5.832,1.489
				c0.776,0.187,1.396,0.807,1.613,1.582c0.187,0.775-0.031,1.613-0.62,2.172l-4.28,4.188L46.969,28.001z"/>
		</g>
	</g>
</g>
</svg>
