<?xml version="1.0" encoding="utf-8"?>
<!-- Generator: Adobe Illustrator 16.0.0, SVG Export Plug-In . SVG Version: 6.00 Build 0)  -->
<!DOCTYPE svg PUBLIC "-//W3C//DTD SVG 1.1//EN" "http://www.w3.org/Graphics/SVG/1.1/DTD/svg11.dtd">
<svg version="1.1" xmlns="http://www.w3.org/2000/svg" xmlns:xlink="http://www.w3.org/1999/xlink" x="0px" y="0px"
	 width="61.658px" height="36.957px" viewBox="0 0 61.658 36.957" enable-background="new 0 0 61.658 36.957" xml:space="preserve">
<g id="Layer_2" display="none">
	<rect x="-137.688" y="-31.143" display="inline" fill="#D8D8D8" width="130.042" height="131.043"/>
</g>
<g id="Layer_1">
	<g>
		<path fill="none" d="M14.395,7.846l0.002,21.268l32.869-0.004L47.262,7.842L14.395,7.846z M19.564,24.41l-0.023-10.955
			l22.77-0.051l0.023,10.955L19.564,24.41z"/>
		
			<rect x="25.46" y="7.522" transform="matrix(-0.0021 -1 1 -0.0021 12.0965 49.8851)" fill="#FFFFFF" width="10.955" height="22.77"/>
		<path fill="#FFFFFF" d="M61.656,24.795c-0.547,0.148-1.125,0.23-1.719,0.23c-3.619,0-6.553-2.934-6.555-6.553
			c0.002-3.619,2.934-6.553,6.553-6.553c0.596,0,1.17,0.082,1.719,0.23l-0.002-9.576c0-1.424-1.156-2.576-2.58-2.574L2.576,0.008
			C1.152,0.008,0,1.164,0,2.59l0.002,9.508c0.467-0.107,0.949-0.164,1.449-0.164c3.617-0.002,6.551,2.932,6.553,6.551
			c0,3.617-2.934,6.551-6.553,6.551c-0.496,0-0.98-0.057-1.447-0.16v9.508c0.002,1.422,1.156,2.574,2.578,2.574l56.5-0.008
			c1.424-0.002,2.576-1.156,2.576-2.58L61.656,24.795z M45.861,3.697h0.5c0.276,0,0.5,0.224,0.5,0.5s-0.224,0.5-0.5,0.5h-0.5
			c-0.276,0-0.5-0.224-0.5-0.5S45.585,3.697,45.861,3.697z M42.361,3.697h0.5c0.276,0,0.5,0.224,0.5,0.5s-0.224,0.5-0.5,0.5h-0.5
			c-0.276,0-0.5-0.224-0.5-0.5S42.085,3.697,42.361,3.697z M38.861,3.697h0.5c0.276,0,0.5,0.224,0.5,0.5s-0.224,0.5-0.5,0.5h-0.5
			c-0.276,0-0.5-0.224-0.5-0.5S38.585,3.697,38.861,3.697z M35.361,3.697h0.5c0.276,0,0.5,0.224,0.5,0.5s-0.224,0.5-0.5,0.5h-0.5
			c-0.276,0-0.5-0.224-0.5-0.5S35.085,3.697,35.361,3.697z M31.861,3.697h0.5c0.276,0,0.5,0.224,0.5,0.5s-0.224,0.5-0.5,0.5h-0.5
			c-0.276,0-0.5-0.224-0.5-0.5S31.585,3.697,31.861,3.697z M28.361,3.697h0.5c0.276,0,0.5,0.224,0.5,0.5s-0.224,0.5-0.5,0.5h-0.5
			c-0.276,0-0.5-0.224-0.5-0.5S28.085,3.697,28.361,3.697z M24.861,3.697h0.5c0.276,0,0.5,0.224,0.5,0.5s-0.224,0.5-0.5,0.5h-0.5
			c-0.276,0-0.5-0.224-0.5-0.5S24.585,3.697,24.861,3.697z M21.361,3.697h0.5c0.276,0,0.5,0.224,0.5,0.5s-0.224,0.5-0.5,0.5h-0.5
			c-0.276,0-0.5-0.224-0.5-0.5S21.085,3.697,21.361,3.697z M17.861,3.697h0.5c0.276,0,0.5,0.224,0.5,0.5s-0.224,0.5-0.5,0.5h-0.5
			c-0.276,0-0.5-0.224-0.5-0.5S17.585,3.697,17.861,3.697z M14.361,3.697h0.5c0.276,0,0.5,0.224,0.5,0.5s-0.224,0.5-0.5,0.5h-0.5
			c-0.276,0-0.5-0.224-0.5-0.5S14.085,3.697,14.361,3.697z M14.861,33.623h-0.5c-0.276,0-0.5-0.224-0.5-0.5s0.224-0.5,0.5-0.5h0.5
			c0.276,0,0.5,0.224,0.5,0.5S15.138,33.623,14.861,33.623z M18.361,33.623h-0.5c-0.276,0-0.5-0.224-0.5-0.5s0.224-0.5,0.5-0.5h0.5
			c0.276,0,0.5,0.224,0.5,0.5S18.638,33.623,18.361,33.623z M21.861,33.623h-0.5c-0.276,0-0.5-0.224-0.5-0.5s0.224-0.5,0.5-0.5h0.5
			c0.276,0,0.5,0.224,0.5,0.5S22.138,33.623,21.861,33.623z M25.361,33.623h-0.5c-0.276,0-0.5-0.224-0.5-0.5s0.224-0.5,0.5-0.5h0.5
			c0.276,0,0.5,0.224,0.5,0.5S25.638,33.623,25.361,33.623z M28.861,33.623h-0.5c-0.276,0-0.5-0.224-0.5-0.5s0.224-0.5,0.5-0.5h0.5
			c0.276,0,0.5,0.224,0.5,0.5S29.138,33.623,28.861,33.623z M32.361,33.623h-0.5c-0.276,0-0.5-0.224-0.5-0.5s0.224-0.5,0.5-0.5h0.5
			c0.276,0,0.5,0.224,0.5,0.5S32.638,33.623,32.361,33.623z M35.861,33.623h-0.5c-0.276,0-0.5-0.224-0.5-0.5s0.224-0.5,0.5-0.5h0.5
			c0.276,0,0.5,0.224,0.5,0.5S36.138,33.623,35.861,33.623z M39.361,33.623h-0.5c-0.276,0-0.5-0.224-0.5-0.5s0.224-0.5,0.5-0.5h0.5
			c0.276,0,0.5,0.224,0.5,0.5S39.638,33.623,39.361,33.623z M42.861,33.623h-0.5c-0.276,0-0.5-0.224-0.5-0.5s0.224-0.5,0.5-0.5h0.5
			c0.276,0,0.5,0.224,0.5,0.5S43.138,33.623,42.861,33.623z M46.361,33.623h-0.5c-0.276,0-0.5-0.224-0.5-0.5s0.224-0.5,0.5-0.5h0.5
			c0.276,0,0.5,0.224,0.5,0.5S46.638,33.623,46.361,33.623z M14.396,29.113L14.395,7.846l32.867-0.004l0.004,21.268L14.396,29.113z"
			/>
	</g>
</g>
</svg>
