<?xml version="1.0" encoding="utf-8"?>
<!-- Generator: Adobe Illustrator 16.0.0, SVG Export Plug-In . SVG Version: 6.00 Build 0)  -->
<!DOCTYPE svg PUBLIC "-//W3C//DTD SVG 1.1//EN" "http://www.w3.org/Graphics/SVG/1.1/DTD/svg11.dtd">
<svg version="1.1" id="Layer_1" xmlns="http://www.w3.org/2000/svg" xmlns:xlink="http://www.w3.org/1999/xlink" x="0px" y="0px"
	 width="23.249px" height="12.097px" viewBox="0 0 23.249 12.097" enable-background="new 0 0 23.249 12.097" xml:space="preserve">
<g id="Layer_1_3_">
	<g>
		<rect x="10.31" y="2.463" transform="matrix(0.0019 1 -1 0.0019 18.2699 -5.9258)" fill="#398369" width="3.587" height="7.452"/>
		<path fill="#398369" d="M22.158,8.116C21.979,8.164,21.79,8.19,21.595,8.19c-1.184,0-2.145-0.96-2.145-2.144
			c0-1.185,0.96-2.146,2.145-2.146c0.195,0,0.383,0.027,0.562,0.076V0.842C22.157,0.377,21.778,0,21.312,0L2.82,0.003
			c-0.466,0-0.843,0.379-0.843,0.846L1.978,3.96c0.153-0.035,0.311-0.054,0.474-0.054c1.184,0,2.144,0.961,2.145,2.144
			c0,1.186-0.96,2.145-2.145,2.145c-0.162,0-0.32-0.019-0.474-0.051v3.111c0.001,0.465,0.379,0.842,0.844,0.842l18.494-0.001
			c0.466-0.002,0.843-0.379,0.843-0.846L22.158,8.116z M16.988,1.21h0.164c0.091,0,0.164,0.073,0.164,0.163
			c0,0.092-0.073,0.165-0.164,0.165h-0.164c-0.09,0-0.163-0.073-0.163-0.165C16.825,1.283,16.897,1.21,16.988,1.21z M15.842,1.21
			h0.163c0.091,0,0.164,0.073,0.164,0.163c0,0.092-0.073,0.165-0.164,0.165h-0.163c-0.091,0-0.164-0.073-0.164-0.165
			C15.679,1.283,15.751,1.21,15.842,1.21z M14.697,1.21h0.164c0.091,0,0.164,0.073,0.164,0.163c0,0.092-0.073,0.165-0.164,0.165
			h-0.164c-0.09,0-0.164-0.073-0.164-0.165C14.533,1.283,14.606,1.21,14.697,1.21z M13.551,1.21h0.164
			c0.091,0,0.164,0.073,0.164,0.163c0,0.092-0.073,0.165-0.164,0.165h-0.164c-0.09,0-0.163-0.073-0.163-0.165
			C13.388,1.283,13.461,1.21,13.551,1.21z M12.406,1.21h0.163c0.091,0,0.164,0.073,0.164,0.163c0,0.092-0.073,0.165-0.164,0.165
			h-0.163c-0.091,0-0.164-0.073-0.164-0.165C12.242,1.283,12.315,1.21,12.406,1.21z M11.26,1.21h0.164
			c0.091,0,0.164,0.073,0.164,0.163c0,0.092-0.073,0.165-0.164,0.165H11.26c-0.09,0-0.164-0.073-0.164-0.165
			C11.096,1.283,11.17,1.21,11.26,1.21z M10.115,1.21h0.163c0.091,0,0.164,0.073,0.164,0.163c0,0.092-0.073,0.165-0.164,0.165
			h-0.163c-0.091,0-0.164-0.073-0.164-0.165C9.951,1.283,10.024,1.21,10.115,1.21z M8.969,1.21h0.164
			c0.09,0,0.163,0.073,0.163,0.163c0,0.092-0.073,0.165-0.163,0.165H8.969c-0.091,0-0.164-0.073-0.164-0.165
			C8.805,1.283,8.878,1.21,8.969,1.21z M7.823,1.21h0.164c0.091,0,0.164,0.073,0.164,0.163c0,0.092-0.073,0.165-0.164,0.165H7.823
			c-0.09,0-0.164-0.073-0.164-0.165C7.659,1.283,7.733,1.21,7.823,1.21z M6.678,1.21h0.163c0.091,0,0.164,0.073,0.164,0.163
			c0,0.092-0.073,0.165-0.164,0.165H6.678c-0.091,0-0.164-0.073-0.164-0.165C6.514,1.283,6.587,1.21,6.678,1.21z M6.841,11.006
			H6.678c-0.091,0-0.164-0.073-0.164-0.163c0-0.092,0.073-0.165,0.164-0.165h0.163c0.091,0,0.164,0.073,0.164,0.165
			C7.005,10.933,6.932,11.006,6.841,11.006z M7.987,11.006H7.823c-0.09,0-0.164-0.073-0.164-0.163c0-0.092,0.074-0.165,0.164-0.165
			h0.164c0.091,0,0.164,0.073,0.164,0.165C8.151,10.933,8.078,11.006,7.987,11.006z M9.133,11.006H8.969
			c-0.091,0-0.164-0.073-0.164-0.163c0-0.092,0.073-0.165,0.164-0.165h0.164c0.09,0,0.163,0.073,0.163,0.165
			C9.296,10.933,9.224,11.006,9.133,11.006z M10.278,11.006h-0.163c-0.091,0-0.164-0.073-0.164-0.163
			c0-0.092,0.073-0.165,0.164-0.165h0.163c0.091,0,0.164,0.073,0.164,0.165C10.441,10.933,10.369,11.006,10.278,11.006z
			 M11.424,11.006H11.26c-0.09,0-0.164-0.073-0.164-0.163c0-0.092,0.074-0.165,0.164-0.165h0.164c0.091,0,0.164,0.073,0.164,0.165
			C11.587,10.933,11.515,11.006,11.424,11.006z M12.569,11.006h-0.163c-0.091,0-0.164-0.073-0.164-0.163
			c0-0.092,0.073-0.165,0.164-0.165h0.163c0.091,0,0.164,0.073,0.164,0.165C12.732,10.933,12.66,11.006,12.569,11.006z
			 M13.714,11.006h-0.164c-0.09,0-0.163-0.073-0.163-0.163c0-0.092,0.073-0.165,0.163-0.165h0.164c0.091,0,0.164,0.073,0.164,0.165
			C13.878,10.933,13.805,11.006,13.714,11.006z M14.86,11.006h-0.164c-0.09,0-0.164-0.073-0.164-0.163
			c0-0.092,0.074-0.165,0.164-0.165h0.164c0.091,0,0.164,0.073,0.164,0.165C15.024,10.933,14.951,11.006,14.86,11.006z
			 M16.005,11.006h-0.163c-0.091,0-0.164-0.073-0.164-0.163c0-0.092,0.073-0.165,0.164-0.165h0.163c0.091,0,0.164,0.073,0.164,0.165
			C16.169,10.933,16.096,11.006,16.005,11.006z M17.151,11.006h-0.164c-0.09,0-0.163-0.073-0.163-0.163
			c0-0.092,0.073-0.165,0.163-0.165h0.164c0.091,0,0.164,0.073,0.164,0.165C17.315,10.933,17.242,11.006,17.151,11.006z
			 M6.689,9.528v-6.96l10.758-0.002l0.001,6.962H6.689z"/>
	</g>
</g>
</svg>
