<?xml version="1.0" encoding="utf-8"?>
<!-- Generator: Adobe Illustrator 16.0.0, SVG Export Plug-In . SVG Version: 6.00 Build 0)  -->
<!DOCTYPE svg PUBLIC "-//W3C//DTD SVG 1.1//EN" "http://www.w3.org/Graphics/SVG/1.1/DTD/svg11.dtd">
<svg version="1.1" id="Layer_1" xmlns="http://www.w3.org/2000/svg" xmlns:xlink="http://www.w3.org/1999/xlink" x="0px" y="0px"
	 width="51.314px" height="51.314px" viewBox="0 0 51.314 51.314" enable-background="new 0 0 51.314 51.314" xml:space="preserve">
<g>
	<path fill="#FFFFFF" d="M25.656,0C11.486,0,0,11.487,0,25.657c0,14.17,11.486,25.657,25.657,25.657
		c14.171,0,25.658-11.487,25.658-25.657C51.314,11.487,39.827,0,25.656,0z M25.656,48.415C13.088,48.415,2.9,38.227,2.9,25.657
		c0-1.022,0.074-2.027,0.205-3.013l3.239,4.844h2.321v-2.914h2.767c1.138,0,2.06-0.922,2.06-2.059h2.36l2.468-2.468V17.76
		l-2.441-2.441h-2.485v2.03h-2.408c-1.281,0-2.32-1.039-2.32-2.321c0-1.282,1.039-2.32,2.32-2.32v-2.379H8.839
		C13,5.765,18.993,2.901,25.656,2.901c6.559,0,12.466,2.779,16.618,7.218l-4.146,2.536c-0.748-0.99-1.936-1.629-3.273-1.629
		c-2.264,0-4.099,1.836-4.099,4.1l1.748,0.629l-0.188,0.524l-0.981-0.297l-1.624,1.122l1.045,2.127h0.888
		c0.968,0,1.751,0.784,1.751,1.75v2.311h1.764l2.676-1.339c0.739,0,1.339,0.6,1.339,1.339h-4.014l4.217,5.608l3.354-3.354h1.698
		c0.705,0,1.277,0.57,1.277,1.275l-0.015-0.054c0,0.706,0.571,1.277,1.276,1.277v3.097l0.666,0.422
		C45.032,41.268,36.18,48.415,25.656,48.415z"/>
	<path fill="#FFFFFF" d="M11.169,31.997c0,1.507,1.221,2.726,2.727,2.726v8.996l2.312,1.131v-1.712l4.148-4.149v-2.001
		c1.505,0,2.727-1.222,2.727-2.726l0.009-1.943h-2.417l-4.729-4.816l-7.281-0.014l2.495,2.566L11.169,31.997z"/>
	<path fill="#FFFFFF" d="M27.274,22.711c1.922,0,3.481-1.559,3.481-3.48h-3.481V22.711z"/>
	<path fill="#FFFFFF" d="M34.538,24.413h-8.511c-0.898,0-1.625,0.728-1.625,1.625v1.561c0,2.704,2.191,4.895,4.893,4.895h2.496
		v5.787l2.291,2.293h2.292v-2.525l2.32-2.319v-4.168c0.85,0,1.538-0.688,1.538-1.539h-1.48L34.538,24.413z"/>
	<path fill="#FFFFFF" d="M17.013,7.549l-1.779,2.708l1.009,1.548l0.021,2.43l2.443,2.442l1.461-3.358
		c2.375,0,4.299-1.925,4.299-4.299L17.013,7.549z"/>
	<path fill="#FFFFFF" d="M37.302,39.18v1.394c0.77,0,1.393-0.625,1.393-1.394v-1.393C37.926,37.787,37.302,38.41,37.302,39.18z"/>
	<path fill="#FFFFFF" d="M27.97,17.104h1.742v-1.741C28.75,15.362,27.97,16.142,27.97,17.104z"/>
</g>
</svg>
