<?xml version="1.0" encoding="utf-8"?>
<!-- Generator: Adobe Illustrator 16.0.0, SVG Export Plug-In . SVG Version: 6.00 Build 0)  -->
<!DOCTYPE svg PUBLIC "-//W3C//DTD SVG 1.1//EN" "http://www.w3.org/Graphics/SVG/1.1/DTD/svg11.dtd">
<svg version="1.1" id="Layer_1" xmlns="http://www.w3.org/2000/svg" xmlns:xlink="http://www.w3.org/1999/xlink" x="0px" y="0px"
	 width="23.249px" height="12.097px" viewBox="0 0 23.249 12.097" enable-background="new 0 0 23.249 12.097" xml:space="preserve">
<g>
	<path fill="#398369" d="M11.019-0.012c-3.347,0-6.06,2.714-6.06,6.061s2.713,6.061,6.061,6.061c3.347,0,6.061-2.714,6.061-6.061
		S14.366-0.012,11.019-0.012z M11.019,11.425c-2.969,0-5.375-2.407-5.375-5.376c0-0.241,0.018-0.479,0.048-0.712l0.765,1.145h0.548
		V5.793h0.653c0.269,0,0.487-0.218,0.487-0.486h0.558l0.583-0.583v-0.54L8.709,3.606H8.123v0.479H7.554
		c-0.303,0-0.548-0.245-0.548-0.548S7.251,2.99,7.554,2.99V2.428H7.046c0.983-1.077,2.398-1.754,3.972-1.754
		c1.549,0,2.945,0.656,3.926,1.705l-0.979,0.599c-0.177-0.233-0.458-0.385-0.773-0.385c-0.535,0-0.969,0.434-0.969,0.969
		l0.413,0.148l-0.044,0.124l-0.232-0.07l-0.383,0.265l0.247,0.503h0.21c0.229,0,0.414,0.185,0.414,0.413V5.49h0.417l0.632-0.316
		c0.175,0,0.316,0.142,0.316,0.316h-0.948l0.996,1.324l0.792-0.792h0.401c0.167,0,0.302,0.135,0.302,0.302l-0.003-0.013
		c0,0.166,0.135,0.301,0.301,0.301v0.732l0.157,0.1C15.596,9.736,13.505,11.425,11.019,11.425z"/>
	<path fill="#398369" d="M7.597,7.547c0,0.355,0.289,0.644,0.644,0.644v2.125l0.546,0.267v-0.404l0.979-0.979V8.726
		c0.355,0,0.644-0.289,0.644-0.644l0.002-0.46H9.842L8.725,6.484l-1.72-0.003l0.589,0.606L7.597,7.547z"/>
	<path fill="#398369" d="M11.401,5.353c0.454,0,0.822-0.368,0.822-0.821h-0.822V5.353z"/>
	<path fill="#398369" d="M13.117,5.755h-2.01c-0.212,0-0.384,0.172-0.384,0.384v0.369c0,0.639,0.517,1.156,1.156,1.156h0.589v1.367
		l0.541,0.541h0.542V8.976l0.548-0.548V7.443c0.201,0,0.363-0.162,0.363-0.363h-0.35L13.117,5.755z"/>
	<path fill="#398369" d="M8.977,1.771l-0.42,0.64l0.238,0.366L8.8,3.351l0.577,0.577l0.345-0.793c0.561,0,1.016-0.455,1.016-1.016
		L8.977,1.771z"/>
	<path fill="#398369" d="M13.77,9.243v0.329c0.182,0,0.329-0.147,0.329-0.329V8.914C13.917,8.914,13.77,9.062,13.77,9.243z"/>
	<path fill="#398369" d="M11.565,4.028h0.411V3.617C11.75,3.617,11.565,3.802,11.565,4.028z"/>
</g>
</svg>
