<?xml version="1.0" encoding="utf-8"?>
<!-- Generator: Adobe Illustrator 16.0.0, SVG Export Plug-In . SVG Version: 6.00 Build 0)  -->
<!DOCTYPE svg PUBLIC "-//W3C//DTD SVG 1.1//EN" "http://www.w3.org/Graphics/SVG/1.1/DTD/svg11.dtd">
<svg version="1.1" id="Layer_1" xmlns="http://www.w3.org/2000/svg" xmlns:xlink="http://www.w3.org/1999/xlink" x="0px" y="0px"
	 width="51px" height="49.5px" viewBox="0 0 51 49.5" enable-background="new 0 0 51 49.5" xml:space="preserve">
<path fill="#FFFFFF" d="M26.374,49.426c-6.049,0-11.578-2.209-15.854-5.866L0,44.997l4.064-10.031
	c-1.418-3.125-2.211-6.595-2.211-10.253C1.854,11.064,12.833,0,26.374,0c13.539,0,24.515,11.064,24.515,24.713
	C50.889,38.364,39.912,49.426,26.374,49.426z M39.76,24.642v-0.067c0-7.133-5.029-12.217-13.701-12.217h-9.363V37.07h9.227
	C34.659,37.07,39.76,31.774,39.76,24.642L39.76,24.642z M26.163,30.998h-2.738V18.432h2.738c4.025,0,6.695,2.292,6.695,6.249v0.068
	C32.858,28.738,30.188,30.998,26.163,30.998z"/>
</svg>
