<?xml version="1.0" encoding="utf-8"?>
<!-- Generator: Adobe Illustrator 16.0.0, SVG Export Plug-In . SVG Version: 6.00 Build 0)  -->
<!DOCTYPE svg PUBLIC "-//W3C//DTD SVG 1.1//EN" "http://www.w3.org/Graphics/SVG/1.1/DTD/svg11.dtd">
<svg version="1.1" id="Layer_1" xmlns="http://www.w3.org/2000/svg" xmlns:xlink="http://www.w3.org/1999/xlink" x="0px" y="0px"
	 width="23.249px" height="12.097px" viewBox="0 0 23.249 12.097" enable-background="new 0 0 23.249 12.097" xml:space="preserve">
<path fill="#398369" d="M11.458,12.096c-1.48,0-2.833-0.541-3.88-1.436l-2.575,0.352l0.995-2.455
	C5.65,7.793,5.456,6.943,5.456,6.049C5.457,2.707,8.143,0,11.458,0c3.313,0,6,2.707,6,6.049
	C17.458,9.389,14.771,12.096,11.458,12.096z M14.733,6.029V6.014c0-1.746-1.231-2.99-3.353-2.99H9.089v6.049h2.258
	C13.485,9.072,14.733,7.775,14.733,6.029L14.733,6.029z M11.406,7.586h-0.67V4.51h0.67c0.985,0,1.639,0.562,1.639,1.529v0.018
	C13.044,7.033,12.391,7.586,11.406,7.586z"/>
</svg>
