<?xml version="1.0" encoding="utf-8"?>
<!-- Generator: Adobe Illustrator 16.0.0, SVG Export Plug-In . SVG Version: 6.00 Build 0)  -->
<!DOCTYPE svg PUBLIC "-//W3C//DTD SVG 1.1//EN" "http://www.w3.org/Graphics/SVG/1.1/DTD/svg11.dtd">
<svg version="1.1" id="Layer_1" xmlns="http://www.w3.org/2000/svg" xmlns:xlink="http://www.w3.org/1999/xlink" x="0px" y="0px"
	 width="23.249px" height="12.097px" viewBox="0 0 23.249 12.097" enable-background="new 0 0 23.249 12.097" xml:space="preserve">
<g>
	<g>
		<path fill="#FFFFFF" d="M13.119,10.556"/>
		<path fill="#398369" d="M13.323,11.163c-0.087-0.197-0.137-0.404-0.204-0.607L9.628,0.001h3.993l3.993,12.072h-2.803
			c-0.365,0-0.727-0.143-1.018-0.357c-0.146-0.109-0.277-0.238-0.38-0.389C13.376,11.274,13.347,11.22,13.323,11.163z"/>
	</g>
	<g>
		<path fill="#277C65" d="M9.628,0.001c0,0,3.491,10.555,3.491,10.555c0.067,0.203,0.117,0.41,0.204,0.607
			c0.024,0.057,0.053,0.111,0.09,0.164c0.06,0.088,0.131,0.168,0.208,0.242V0.001H9.628z"/>
	</g>
	<g>
		<path fill="#FFFFFF" d="M10.13,10.556"/>
		<path fill="#398369" d="M9.926,11.163c0.087-0.197,0.137-0.404,0.204-0.607l3.491-10.555H9.628L5.635,12.073h2.803
			c0.365,0,0.728-0.143,1.018-0.357c0.146-0.109,0.277-0.238,0.38-0.389C9.873,11.274,9.902,11.22,9.926,11.163z"/>
	</g>
</g>
</svg>
