<?xml version="1.0" encoding="utf-8"?>
<!-- Generator: Adobe Illustrator 16.0.0, SVG Export Plug-In . SVG Version: 6.00 Build 0)  -->
<!DOCTYPE svg PUBLIC "-//W3C//DTD SVG 1.1//EN" "http://www.w3.org/Graphics/SVG/1.1/DTD/svg11.dtd">
<svg version="1.1" xmlns="http://www.w3.org/2000/svg" xmlns:xlink="http://www.w3.org/1999/xlink" x="0px" y="0px" width="26.13px"
	 height="50.23px" viewBox="0 0 26.13 50.23" enable-background="new 0 0 26.13 50.23" xml:space="preserve">
<g id="Layer_2" display="none">
	<rect x="-78.3" y="-8.89" display="inline" fill="#D8D8D8" width="130.042" height="131.043"/>
</g>
<g id="Layer_1">
	<g>
		<path fill="#FFFFFF" d="M16.095,44.428v4.906c0,0.504-0.393,0.896-0.896,0.896h-3.784c-0.477,0-0.897-0.393-0.897-0.896v-4.906
			C3.958,43.503,0.37,39.579,0.229,39.411c-0.28-0.337-0.309-0.813-0.056-1.149l2.887-3.784c0.141-0.196,0.393-0.309,0.645-0.337
			c0.253-0.027,0.505,0.057,0.673,0.253c0.057,0.027,3.98,3.784,8.942,3.784c2.746,0,5.718-1.458,5.718-4.625
			c0-2.691-3.308-4.009-7.092-5.522C6.901,26.04,0.622,23.518,0.622,16.481c0-5.157,4.036-9.418,9.895-10.539V0.896
			C10.517,0.393,10.938,0,11.414,0h3.784c0.504,0,0.896,0.393,0.896,0.896V5.83c5.69,0.645,8.718,3.729,8.83,3.841
			c0.28,0.308,0.336,0.729,0.14,1.064l-2.271,4.093c-0.14,0.252-0.364,0.42-0.645,0.448c-0.28,0.057-0.532-0.028-0.757-0.196
			c-0.028-0.027-3.42-3.027-7.624-3.027c-3.56,0-6.026,1.767-6.026,4.317c0,2.971,3.419,4.288,7.399,5.83
			C20.3,24.19,26.13,26.461,26.13,33.216C26.13,38.935,22.037,43.447,16.095,44.428z"/>
	</g>
</g>
</svg>
