<?xml version="1.0" encoding="utf-8"?>
<!-- Generator: Adobe Illustrator 16.0.0, SVG Export Plug-In . SVG Version: 6.00 Build 0)  -->
<!DOCTYPE svg PUBLIC "-//W3C//DTD SVG 1.1//EN" "http://www.w3.org/Graphics/SVG/1.1/DTD/svg11.dtd">
<svg version="1.1" id="Layer_1" xmlns="http://www.w3.org/2000/svg" xmlns:xlink="http://www.w3.org/1999/xlink" x="0px" y="0px"
	 width="52.482px" height="52.894px" viewBox="0 0 52.482 52.894" enable-background="new 0 0 52.482 52.894" xml:space="preserve">
<g>
	<g>
		<path fill="#FFFFFF" d="M32.788,46.241"/>
		<path fill="#FFFFFF" d="M33.682,48.905c-0.38-0.866-0.599-1.771-0.894-2.664C32.788,46.239,17.494,0,17.494,0h17.494
			l17.494,52.894c0,0-12.283,0-12.284,0c-1.599,0-3.185-0.625-4.458-1.571c-0.638-0.475-1.213-1.043-1.665-1.699
			C33.917,49.393,33.79,49.152,33.682,48.905z"/>
	</g>
	<g>
		<path fill="#E5E5E5" d="M17.494,0c0,0,15.293,46.239,15.294,46.241c0.295,0.893,0.514,1.798,0.894,2.664
			c0.108,0.247,0.235,0.487,0.395,0.718c0.265,0.385,0.575,0.734,0.912,1.058V0H17.494z"/>
	</g>
	<g>
		<path fill="#FFFFFF" d="M19.694,46.241"/>
		<path fill="#FFFFFF" d="M18.801,48.905c0.38-0.866,0.598-1.771,0.894-2.664C19.695,46.239,34.988,0,34.988,0H17.494L0,52.894
			c0,0,12.283,0,12.284,0c1.598,0,3.185-0.625,4.457-1.571c0.638-0.475,1.213-1.043,1.665-1.699
			C18.565,49.393,18.692,49.152,18.801,48.905z"/>
	</g>
</g>
</svg>
