<?xml version="1.0" encoding="utf-8"?>
<!-- Generator: Adobe Illustrator 16.0.0, SVG Export Plug-In . SVG Version: 6.00 Build 0)  -->
<!DOCTYPE svg PUBLIC "-//W3C//DTD SVG 1.1//EN" "http://www.w3.org/Graphics/SVG/1.1/DTD/svg11.dtd">
<svg version="1.1" id="Layer_1" xmlns="http://www.w3.org/2000/svg" xmlns:xlink="http://www.w3.org/1999/xlink" x="0px" y="0px"
	 width="23.249px" height="12.098px" viewBox="0 0 23.249 12.098" enable-background="new 0 0 23.249 12.098" xml:space="preserve">
<g id="Layer_1_8_">
	<g>
		<path fill="#398369" d="M12.359,10.7v1.182c0,0.122-0.096,0.216-0.217,0.216h-0.917c-0.116,0-0.217-0.095-0.217-0.216V10.7
			c-1.59-0.223-2.459-1.168-2.493-1.208C8.446,9.411,8.439,9.297,8.5,9.215l0.7-0.91c0.034-0.049,0.095-0.075,0.157-0.082
			C9.417,8.216,9.479,8.236,9.52,8.284c0.014,0.006,0.964,0.911,2.167,0.911c0.666,0,1.385-0.353,1.385-1.115
			c0-0.647-0.801-0.965-1.718-1.329C10.13,6.271,8.609,5.664,8.609,3.97c0-1.241,0.978-2.269,2.397-2.539V0.216
			C11.007,0.095,11.109,0,11.224,0h0.917c0.122,0,0.217,0.095,0.217,0.216v1.188c1.378,0.155,2.112,0.897,2.14,0.924
			c0.068,0.075,0.081,0.176,0.034,0.258l-0.55,0.985c-0.034,0.061-0.088,0.102-0.156,0.108c-0.068,0.013-0.129-0.007-0.184-0.048
			c-0.007-0.006-0.829-0.729-1.848-0.729c-0.862,0-1.46,0.427-1.46,1.04c0,0.716,0.829,1.033,1.793,1.404
			C13.377,5.826,14.79,6.373,14.79,8C14.79,9.378,13.799,10.464,12.359,10.7z"/>
	</g>
</g>
</svg>
