<?xml version="1.0" encoding="utf-8"?>
<!-- Generator: Adobe Illustrator 16.0.0, SVG Export Plug-In . SVG Version: 6.00 Build 0)  -->
<!DOCTYPE svg PUBLIC "-//W3C//DTD SVG 1.1//EN" "http://www.w3.org/Graphics/SVG/1.1/DTD/svg11.dtd">
<svg version="1.1" xmlns="http://www.w3.org/2000/svg" xmlns:xlink="http://www.w3.org/1999/xlink" x="0px" y="0px"
	 width="28.188px" height="27.76px" viewBox="0 0 28.188 27.76" enable-background="new 0 0 28.188 27.76" xml:space="preserve">
<g id="Layer_2">
</g>
<g id="Layer_1">
	<g>
		<path fill="#448368" d="M18.791,5.495c0,3.42-2.771,8.494-6.191,8.494c-3.418,0-6.19-5.074-6.19-8.494C6.409,2.077,9.182,0,12.6,0
			C16.02,0,18.791,2.077,18.791,5.495z"/>
		<path fill="#448368" d="M23.254,11.55h-0.436c-2.725,0-4.934,2.229-4.934,4.979s2.209,4.979,4.934,4.979h0.436
			c2.725,0,4.934-2.229,4.934-4.979S25.979,11.55,23.254,11.55z M23.209,20.508h-0.346c-2.18,0-3.944-1.781-3.944-3.979
			s1.765-3.979,3.944-3.979h0.346c2.18,0,3.944,1.781,3.944,3.979S25.389,20.508,23.209,20.508z"/>
		<path fill="#448368" d="M25.176,25.797c-0.027-0.174-0.077-0.337-0.152-0.49c-0.264-0.845-0.523-1.619-0.782-2.336h-0.929
			c-0.053,0.002-0.105,0.01-0.158,0.01h-1.52c-2.121-0.279-4.839-1.414-5.346-5.298v-0.508v-0.884v-1.477
			c-1.072-0.138-2.273-0.175-3.658-0.175c-6.795,0-9.919,1.262-12.594,11.059c0,0.005-0.002,0.008-0.002,0.011
			C0.013,25.819,0,25.935,0,26.051c0,0.944,0.765,1.709,1.709,1.709h21.783c0.943,0,1.709-0.765,1.709-1.709
			C25.201,25.966,25.188,25.881,25.176,25.797z"/>
		<path fill="#448368" d="M23.095,25.066"/>
		<path fill="#448368" d="M25.941,17.462c0,0.328-0.266,0.595-0.592,0.595h-4.374c-0.326,0-0.593-0.267-0.593-0.595l0,0
			c0-0.327,0.267-0.594,0.593-0.594h4.374C25.676,16.868,25.941,17.134,25.941,17.462L25.941,17.462z"/>
		<path fill="#448368" d="M24.326,15.443c0,0.328-0.268,0.595-0.595,0.595h-2.646c-0.326,0-0.593-0.267-0.593-0.595l0,0
			c0-0.326,0.267-0.594,0.593-0.594h2.646C24.059,14.85,24.326,15.117,24.326,15.443L24.326,15.443z"/>
	</g>
</g>
</svg>
