<?xml version="1.0" encoding="utf-8"?>
<!-- Generator: Adobe Illustrator 16.0.0, SVG Export Plug-In . SVG Version: 6.00 Build 0)  -->
<!DOCTYPE svg PUBLIC "-//W3C//DTD SVG 1.1//EN" "http://www.w3.org/Graphics/SVG/1.1/DTD/svg11.dtd">
<svg version="1.1" xmlns="http://www.w3.org/2000/svg" xmlns:xlink="http://www.w3.org/1999/xlink" x="0px" y="0px" width="85.47px"
	 height="84.174px" viewBox="0 0 85.47 84.174" enable-background="new 0 0 85.47 84.174" xml:space="preserve">
<g id="Layer_2">
</g>
<g id="Layer_1">
	<g>
		<path fill="#FFFFFF" d="M56.979,16.664c0,10.368-8.403,25.754-18.772,25.754c-10.367,0-18.771-15.386-18.771-25.754
			C19.436,6.297,27.841,0,38.207,0C48.576,0,56.979,6.297,56.979,16.664z"/>
		<path fill="#FFFFFF" d="M70.511,35.02h-1.32c-8.264,0-14.96,6.76-14.96,15.098c0,8.339,6.696,15.099,14.96,15.099h1.32
			c8.262,0,14.959-6.76,14.959-15.099C85.47,41.779,78.772,35.02,70.511,35.02z M70.378,62.186h-1.053
			c-6.608,0-11.96-5.403-11.96-12.068c0-6.664,5.352-12.066,11.96-12.066h1.053c6.604,0,11.957,5.402,11.957,12.066
			C82.335,56.782,76.981,62.186,70.378,62.186z"/>
		<path fill="#FFFFFF" d="M76.337,78.223c-0.08-0.527-0.233-1.022-0.458-1.484c-0.802-2.562-1.59-4.911-2.376-7.086h-2.813
			c-0.163,0.008-0.319,0.033-0.484,0.033h-4.602c-6.434-0.849-14.676-4.291-16.212-16.067V52.08v-2.682v-4.477
			c-3.252-0.416-6.896-0.529-11.092-0.529c-20.607,0-30.079,3.825-38.187,33.531c-0.003,0.012-0.007,0.021-0.009,0.033
			C0.037,78.291,0,78.639,0,78.992c0,2.862,2.32,5.182,5.181,5.182h66.053c2.862,0,5.183-2.319,5.183-5.182
			C76.416,78.732,76.377,78.477,76.337,78.223z"/>
		<path fill="#FFFFFF" d="M70.028,76.01"/>
		<path fill="#FFFFFF" d="M78.662,52.949c0,0.994-0.809,1.802-1.8,1.802H63.604c-0.991,0-1.799-0.808-1.799-1.802l0,0
			c0-0.992,0.808-1.798,1.799-1.798h13.259C77.854,51.151,78.662,51.955,78.662,52.949L78.662,52.949z"/>
		<path fill="#FFFFFF" d="M73.76,46.83c0,0.994-0.807,1.801-1.8,1.801h-8.021c-0.992,0-1.801-0.807-1.801-1.801l0,0
			c0-0.991,0.809-1.801,1.801-1.801h8.019C72.953,45.029,73.76,45.839,73.76,46.83L73.76,46.83z"/>
	</g>
</g>
</svg>
