<?xml version="1.0" encoding="utf-8"?>
<!-- Generator: Adobe Illustrator 17.0.0, SVG Export Plug-In . SVG Version: 6.00 Build 0)  -->
<!DOCTYPE svg PUBLIC "-//W3C//DTD SVG 1.1//EN" "http://www.w3.org/Graphics/SVG/1.1/DTD/svg11.dtd">
<svg version="1.1" id="Layer_1" xmlns="http://www.w3.org/2000/svg" xmlns:xlink="http://www.w3.org/1999/xlink" x="0px" y="0px"
	 width="77.468px" height="80px" viewBox="0 -15 77.468 80" enable-background="new 0 -15 77.468 80" xml:space="preserve">
<path fill="#005981" d="M76.688-1.865l-9.944-9.98c-1.371-1.385-4.105-0.902-6.078,1.065l-9.108,9.076L39.027-14.716H0V65h61.41
	V18.342L75.602,4.201C77.57,2.24,78.062-0.485,76.688-1.865z M40.075-4.316l6.907,7.173l-3.777,3.767h-3.13V-4.316z M41.506,34.324
	l-13.738,5.563l-2.954-2.964l5.614-13.721L41.506,34.324z M54.942,58.538H6.462V-8.254h28.765v19.726h3.111l-3.678,3.664h-21.3
	v3.232h18.059l-2.911,2.902l-2.98,7.275H13.359v3.233h10.845l-4.163,10.176h-6.68v3.233h34.703v-3.233H29.348l14.083-5.703
	l4.483-4.474h0.147v-0.14l6.881-6.857V58.538L54.942,58.538z"/>
</svg>
