<?xml version="1.0" encoding="utf-8"?>
<!-- Generator: Adobe Illustrator 16.0.0, SVG Export Plug-In . SVG Version: 6.00 Build 0)  -->
<!DOCTYPE svg PUBLIC "-//W3C//DTD SVG 1.1//EN" "http://www.w3.org/Graphics/SVG/1.1/DTD/svg11.dtd">
<svg version="1.1" id="Layer_1" xmlns="http://www.w3.org/2000/svg" xmlns:xlink="http://www.w3.org/1999/xlink" x="0px" y="0px"
	 width="48.59px" height="50px" viewBox="0 0 48.59 50" enable-background="new 0 0 48.59 50" xml:space="preserve">
<path fill="#FFFFFF" d="M48.101,8.06L41.864,1.8c-0.86-0.869-2.575-0.566-3.812,0.668l-5.713,5.693L24.479,0H0v50h38.518V20.735
	l8.902-8.87C48.654,10.635,48.963,8.926,48.101,8.06z M25.136,6.523l4.332,4.499l-2.369,2.363h-1.963V6.523z M26.034,30.759
	l-8.617,3.489l-1.853-1.859l3.521-8.606L26.034,30.759z M34.461,45.947H4.053V4.053h18.042v12.373h1.951l-2.307,2.298H8.379v2.027
	h11.327l-1.826,1.82l-1.869,4.563H8.379v2.028h6.802l-2.611,6.383h-4.19v2.028h21.767v-2.028H18.408l8.833-3.577l2.812-2.806h0.092
	v-0.088l4.316-4.301L34.461,45.947L34.461,45.947z"/>
</svg>
