<?xml version="1.0" encoding="utf-8"?>
<!-- Generator: Adobe Illustrator 16.0.0, SVG Export Plug-In . SVG Version: 6.00 Build 0)  -->
<!DOCTYPE svg PUBLIC "-//W3C//DTD SVG 1.1//EN" "http://www.w3.org/Graphics/SVG/1.1/DTD/svg11.dtd">
<svg version="1.1" id="Layer_1" xmlns="http://www.w3.org/2000/svg" xmlns:xlink="http://www.w3.org/1999/xlink" x="0px" y="0px"
	 width="80.415px" height="49.188px" viewBox="0 0 80.415 49.188" enable-background="new 0 0 80.415 49.188" xml:space="preserve">
<g>
	<path fill="#FFFFFF" d="M56.421,31.353c-0.138,0-0.277,0.01-0.415,0.028c-1.729,0.231-2.949,1.825-2.719,3.554
		c0.209,1.565,1.558,2.745,3.139,2.745c0.138,0,0.277-0.009,0.417-0.027c1.727-0.231,2.946-1.824,2.717-3.554
		C59.351,32.534,58.001,31.353,56.421,31.353z"/>
	<path fill="#FFFFFF" d="M60.758,12.347c-1.41-0.933-3.272-1.424-5.389-1.424c-0.622,0-1.26,0.042-1.898,0.127
		c-2.112,0.282-4.16,1.304-5.62,2.803c-1.48,1.523-2.201,3.381-1.972,5.098c0.169,1.267,1.124,2.085,2.43,2.085
		c0.141,0,0.284-0.01,0.427-0.029c1.747-0.232,2.124-1.436,2.487-2.598c0.414-1.325,0.806-2.578,3.062-2.878
		c0.231-0.031,0.456-0.047,0.671-0.047c1.625,0,2.633,0.857,2.841,2.415c0.204,1.523-1.002,2.739-2.277,4.024
		c-1.433,1.444-3.055,3.079-2.745,5.4c0.08,0.599,0.344,1.155,0.741,1.571c0.457,0.476,1.055,0.728,1.729,0.728
		c0.124,0,0.252-0.008,0.378-0.025c1.827-0.244,2.077-1.305,2.317-2.33c0.091-0.389,0.186-0.79,0.368-1.151
		c0.253-0.505,0.888-1.097,1.623-1.783c1.755-1.641,4.158-3.886,3.714-7.213C63.367,15.035,62.394,13.428,60.758,12.347z"/>
	<path fill="#FFFFFF" d="M80.381,39.984L75.487,3.302C75.235,1.421,73.615,0,71.716,0c-0.167,0-0.34,0.013-0.506,0.034L34.529,4.929
		c-2.08,0.278-3.546,2.195-3.269,4.276l0.279,2.099L7.481,7.827c-0.142-0.02-0.283-0.03-0.426-0.03c-1.455,0-2.71,1.087-2.919,2.53
		L0.031,38.741c-0.112,0.781,0.086,1.559,0.558,2.19c0.473,0.632,1.162,1.042,1.942,1.153l28.414,4.105
		c0.141,0.02,0.284,0.029,0.425,0.029c1.455,0,2.711-1.086,2.92-2.529l0.816-5.658l1.048,7.854c0.253,1.883,1.872,3.303,3.771,3.303
		c0.167,0,0.338-0.012,0.506-0.032l36.682-4.897c1.007-0.134,1.902-0.652,2.52-1.459C80.25,41.992,80.514,40.992,80.381,39.984z
		 M31.864,43.341c-0.038,0.27-0.293,0.464-0.568,0.423L2.883,39.659c-0.181-0.024-0.284-0.134-0.332-0.196
		c-0.046-0.062-0.119-0.192-0.094-0.371l4.104-28.415c0.036-0.245,0.249-0.43,0.493-0.43c0.026,0,0.051,0.001,0.074,0.005
		l24.747,3.575l2.041,15.293L31.864,43.341z M77.123,40.88c-0.062,0.08-0.197,0.218-0.429,0.248l-36.682,4.896
		c-0.354,0.05-0.679-0.206-0.727-0.554L34.391,8.786c-0.047-0.354,0.202-0.679,0.556-0.726l36.681-4.896
		c0.031-0.003,0.06-0.005,0.09-0.005c0.321,0,0.596,0.241,0.638,0.562l4.897,36.683C77.281,40.635,77.182,40.801,77.123,40.88z"/>
	<path fill="#FFFFFF" d="M25.32,18.487c-1.126-1.03-2.793-1.751-4.693-2.025c-0.348-0.051-0.705-0.076-1.06-0.076
		c-1.494,0-2.962,0.438-4.137,1.234c-1.207,0.82-1.969,1.932-2.142,3.133c-0.082,0.569,0.054,1.078,0.396,1.473
		c0.307,0.352,0.77,0.589,1.302,0.666c0.134,0.02,0.263,0.031,0.385,0.031c1.076,0,1.557-0.735,2.021-1.444
		c0.519-0.795,1.01-1.545,2.314-1.545c0.181,0,0.377,0.015,0.579,0.044c1.546,0.223,2.318,1.139,2.119,2.512
		c-0.169,1.179-1.326,1.832-2.549,2.521c-1.373,0.775-2.932,1.653-3.191,3.451c-0.072,0.503,0.028,1.024,0.28,1.434
		c0.206,0.334,0.61,0.756,1.365,0.865c0.158,0.021,0.308,0.034,0.446,0.034l0,0c1.063,0,1.426-0.653,1.773-1.284
		c0.152-0.271,0.305-0.551,0.519-0.782c0.296-0.324,0.896-0.632,1.589-0.988c1.657-0.853,3.927-2.021,4.299-4.598
		C27.2,21.309,26.642,19.699,25.32,18.487z"/>
	<path fill="#FFFFFF" d="M18.217,32.173c-0.117-0.018-0.233-0.026-0.349-0.026c-1.214,0-2.259,0.906-2.433,2.105
		c-0.192,1.337,0.739,2.585,2.079,2.778c0.116,0.018,0.232,0.023,0.348,0.023c1.214,0,2.26-0.903,2.433-2.102
		C20.488,33.613,19.555,32.367,18.217,32.173z"/>
</g>
</svg>
