<?xml version="1.0" encoding="utf-8"?>
<!-- Generator: Adobe Illustrator 16.0.0, SVG Export Plug-In . SVG Version: 6.00 Build 0)  -->
<!DOCTYPE svg PUBLIC "-//W3C//DTD SVG 1.1//EN" "http://www.w3.org/Graphics/SVG/1.1/DTD/svg11.dtd">
<svg version="1.1" id="Layer_1" xmlns="http://www.w3.org/2000/svg" xmlns:xlink="http://www.w3.org/1999/xlink" x="0px" y="0px"
	 width="23.249px" height="12.097px" viewBox="0 0 23.249 12.097" enable-background="new 0 0 23.249 12.097" xml:space="preserve">
<g>
	<path fill="#398369" d="M15.613,7.715c-0.034,0-0.068,0.002-0.102,0.007c-0.425,0.057-0.726,0.448-0.669,0.874
		c0.052,0.385,0.383,0.676,0.772,0.676c0.034,0,0.068-0.003,0.103-0.007c0.425-0.058,0.725-0.449,0.668-0.875
		C16.334,8.005,16.002,7.715,15.613,7.715z"/>
	<path fill="#398369" d="M16.681,3.038c-0.347-0.229-0.805-0.351-1.326-0.351c-0.153,0-0.31,0.01-0.467,0.031
		c-0.52,0.069-1.024,0.32-1.383,0.69c-0.364,0.374-0.542,0.831-0.485,1.253c0.042,0.312,0.276,0.514,0.598,0.514
		c0.035,0,0.069-0.002,0.104-0.008c0.43-0.056,0.523-0.353,0.612-0.639c0.102-0.326,0.198-0.635,0.753-0.708
		C15.145,3.813,15.2,3.81,15.252,3.81c0.4,0,0.648,0.21,0.7,0.595c0.05,0.375-0.247,0.674-0.561,0.989
		c-0.353,0.356-0.751,0.758-0.675,1.329c0.019,0.147,0.084,0.284,0.182,0.387c0.112,0.116,0.259,0.18,0.425,0.18
		c0.03,0,0.062-0.003,0.093-0.007c0.449-0.06,0.511-0.32,0.57-0.573c0.022-0.096,0.045-0.194,0.091-0.283
		c0.062-0.124,0.218-0.271,0.399-0.438c0.431-0.404,1.022-0.957,0.914-1.774C17.323,3.699,17.083,3.304,16.681,3.038z"/>
	<path fill="#398369" d="M21.509,9.838l-1.204-9.025C20.243,0.35,19.844,0,19.376,0c-0.041,0-0.084,0.003-0.125,0.009l-9.025,1.203
		C9.715,1.281,9.354,1.753,9.422,2.266l0.069,0.516l-5.92-0.855C3.537,1.921,3.502,1.919,3.467,1.919
		c-0.358,0-0.667,0.267-0.718,0.622l-1.01,6.992C1.711,9.725,1.76,9.916,1.876,10.071s0.286,0.256,0.478,0.283l6.991,1.011
		c0.035,0.005,0.07,0.006,0.105,0.006c0.357,0,0.667-0.267,0.718-0.621l0.201-1.393l0.257,1.933
		c0.062,0.463,0.461,0.812,0.928,0.812c0.041,0,0.083-0.003,0.125-0.008l9.025-1.204c0.248-0.034,0.468-0.16,0.62-0.359
		C21.477,10.332,21.542,10.086,21.509,9.838z M9.571,10.664c-0.009,0.066-0.072,0.113-0.14,0.104L2.44,9.758
		c-0.044-0.006-0.07-0.033-0.082-0.049C2.347,9.694,2.33,9.663,2.335,9.618l1.01-6.991c0.008-0.06,0.061-0.105,0.121-0.105
		c0.006,0,0.013,0,0.018,0.001l6.089,0.88l0.502,3.763L9.571,10.664z M20.707,10.059c-0.015,0.021-0.048,0.054-0.105,0.061
		l-9.026,1.204c-0.087,0.013-0.167-0.05-0.178-0.135l-1.204-9.027c-0.012-0.086,0.049-0.166,0.136-0.178l9.026-1.204
		c0.007-0.002,0.014-0.002,0.021-0.002c0.079,0,0.147,0.06,0.157,0.138l1.205,9.026C20.746,9.999,20.722,10.039,20.707,10.059z"/>
	<path fill="#398369" d="M7.961,4.549C7.684,4.296,7.274,4.117,6.806,4.05c-0.085-0.013-0.173-0.019-0.26-0.019
		c-0.368,0-0.729,0.109-1.018,0.305C5.231,4.537,5.043,4.811,5,5.105C4.98,5.246,5.014,5.371,5.098,5.469
		c0.076,0.087,0.189,0.145,0.32,0.164c0.033,0.005,0.065,0.008,0.095,0.008c0.265,0,0.383-0.182,0.497-0.355
		C6.138,5.09,6.259,4.904,6.58,4.904c0.044,0,0.093,0.005,0.143,0.011c0.38,0.056,0.571,0.281,0.521,0.619
		c-0.041,0.289-0.326,0.451-0.626,0.62c-0.338,0.19-0.722,0.406-0.785,0.849C5.814,7.127,5.838,7.255,5.9,7.356
		c0.051,0.081,0.15,0.186,0.335,0.213c0.039,0.005,0.076,0.007,0.11,0.007l0,0c0.261,0,0.351-0.16,0.436-0.315
		C6.819,7.194,6.857,7.126,6.91,7.068c0.073-0.079,0.22-0.155,0.391-0.243c0.408-0.209,0.966-0.497,1.058-1.131
		C8.424,5.243,8.287,4.847,7.961,4.549z"/>
	<path fill="#398369" d="M6.213,7.916C6.185,7.912,6.156,7.91,6.127,7.91c-0.299,0-0.556,0.223-0.599,0.518
		C5.482,8.756,5.71,9.063,6.041,9.11c0.028,0.006,0.057,0.007,0.086,0.007c0.298,0,0.556-0.223,0.599-0.518
		C6.772,8.271,6.542,7.964,6.213,7.916z"/>
</g>
</svg>
