<?xml version="1.0" encoding="utf-8"?>
<!-- Generator: Adobe Illustrator 16.0.0, SVG Export Plug-In . SVG Version: 6.00 Build 0)  -->
<!DOCTYPE svg PUBLIC "-//W3C//DTD SVG 1.1//EN" "http://www.w3.org/Graphics/SVG/1.1/DTD/svg11.dtd">
<svg version="1.1" id="Layer_1" xmlns="http://www.w3.org/2000/svg" xmlns:xlink="http://www.w3.org/1999/xlink" x="0px" y="0px"
	 width="23.249px" height="12.097px" viewBox="0 0 23.249 12.097" enable-background="new 0 0 23.249 12.097" xml:space="preserve">
<g>
	<g>
		<path fill="#398369" d="M8.158,10.356c-0.114,0.115-0.291,0.115-0.406,0L3.641,6.245c-0.114-0.113-0.114-0.291,0-0.406
			l4.111-4.111c0.115-0.113,0.292-0.113,0.406,0l0.441,0.441c0.115,0.115,0.115,0.293,0,0.406L5.132,6.042l3.467,3.467
			c0.115,0.115,0.115,0.291,0,0.408L8.158,10.356z M10.522,11.892c-0.044,0.148-0.204,0.238-0.344,0.193l-0.547-0.148
			c-0.149-0.045-0.238-0.203-0.194-0.354l3.291-11.391c0.044-0.148,0.204-0.238,0.344-0.193l0.547,0.15
			c0.149,0.043,0.238,0.203,0.194,0.354L10.522,11.892z M15.498,10.356c-0.114,0.115-0.291,0.115-0.405,0l-0.442-0.439
			c-0.114-0.117-0.114-0.293,0-0.408l3.467-3.467l-3.467-3.467c-0.115-0.113-0.115-0.291,0-0.406l0.441-0.441
			c0.114-0.113,0.291-0.113,0.406,0l4.111,4.111c0.114,0.115,0.114,0.293,0,0.406L15.498,10.356z"/>
	</g>
</g>
</svg>
