<?xml version="1.0" encoding="utf-8"?>
<!-- Generator: Adobe Illustrator 16.0.0, SVG Export Plug-In . SVG Version: 6.00 Build 0)  -->
<!DOCTYPE svg PUBLIC "-//W3C//DTD SVG 1.1//EN" "http://www.w3.org/Graphics/SVG/1.1/DTD/svg11.dtd">
<svg version="1.1" id="Layer_1" xmlns="http://www.w3.org/2000/svg" xmlns:xlink="http://www.w3.org/1999/xlink" x="0px" y="0px"
	 width="56.277px" height="42.223px" viewBox="0 0 56.277 42.223" enable-background="new 0 0 56.277 42.223" xml:space="preserve">
<g>
	<g>
		<path fill="#FFFFFF" d="M16.049,36.153c-0.399,0.4-1.015,0.4-1.414,0L0.299,21.819c-0.399-0.4-0.399-1.016,0-1.416L14.635,6.069
			c0.399-0.4,1.015-0.4,1.414,0l1.539,1.537c0.399,0.4,0.399,1.016,0,1.416L5.498,21.111L17.588,33.2c0.399,0.4,0.399,1.016,0,1.416
			L16.049,36.153z M24.293,41.507c-0.153,0.522-0.707,0.83-1.199,0.676l-1.907-0.522c-0.522-0.153-0.831-0.708-0.677-1.23
			L31.984,0.716c0.153-0.522,0.707-0.83,1.199-0.676l1.907,0.522c0.522,0.153,0.831,0.708,0.677,1.23L24.293,41.507z M41.643,36.153
			c-0.399,0.4-1.015,0.4-1.414,0l-1.539-1.537c-0.399-0.4-0.399-1.016,0-1.416l12.09-12.089L38.689,9.022
			c-0.399-0.4-0.399-1.016,0-1.416l1.539-1.537c0.399-0.4,1.015-0.4,1.414,0l14.336,14.334c0.399,0.4,0.399,1.016,0,1.416
			L41.643,36.153z"/>
	</g>
</g>
</svg>
