<?xml version="1.0" encoding="utf-8"?>
<!-- Generator: Adobe Illustrator 16.0.0, SVG Export Plug-In . SVG Version: 6.00 Build 0)  -->
<!DOCTYPE svg PUBLIC "-//W3C//DTD SVG 1.1//EN" "http://www.w3.org/Graphics/SVG/1.1/DTD/svg11.dtd">
<svg version="1.1" id="Layer_1" xmlns="http://www.w3.org/2000/svg" xmlns:xlink="http://www.w3.org/1999/xlink" x="0px" y="0px"
	 width="136.573px" height="32px" viewBox="0 0 136.573 32" enable-background="new 0 0 136.573 32" xml:space="preserve">
<path fill-rule="evenodd" clip-rule="evenodd" fill="#393939" d="M9.687,0c0.437,0.073,0.88,0.123,1.31,0.224
	c0.842,0.199,1.086,0.568,0.914,1.42c-0.565,2.79-1.147,5.575-1.719,8.364c-0.152,0.741-0.29,1.484-0.459,2.359
	c0.36-0.214,0.59-0.364,0.832-0.493c2.226-1.184,4.542-1.446,6.874-0.425c2.11,0.924,3.281,2.705,3.667,4.901
	c0.634,3.604,0.055,7.07-1.792,10.238c-2.028,3.478-5.112,5.258-9.172,5.307c-2.778,0.032-5.348-0.656-7.676-2.171
	c-1.335-0.868-1.674-1.789-1.353-3.357c1.356-6.625,2.708-13.251,4.071-19.875c0.318-1.545,0.649-3.089,1.019-4.624
	c0.308-1.283,0.816-1.662,2.152-1.756C8.725,0.086,9.093,0.038,9.461,0C9.537,0,9.612,0,9.687,0z M15.304,18.844
	c-0.048-1.235-0.211-2.354-1.039-3.241c-0.619-0.663-1.382-0.942-2.307-0.822c-1.022,0.133-1.85,0.651-2.633,1.252
	c-0.226,0.173-0.446,0.46-0.504,0.73c-0.676,3.141-1.323,6.287-1.969,9.433c-0.03,0.146-0.046,0.346,0.028,0.455
	c0.696,1.031,2.862,1.757,4.122,1.47c1.351-0.309,2.151-1.215,2.698-2.384C14.732,23.53,15.109,21.166,15.304,18.844z"/>
<path fill-rule="evenodd" clip-rule="evenodd" fill="#393939" d="M97.532,32c-0.374-0.091-0.758-0.151-1.12-0.277
	c-1.231-0.432-1.926-1.345-2.239-2.58c-0.025-0.104-0.044-0.21-0.082-0.4c-0.365,0.288-0.675,0.542-0.993,0.784
	c-1.434,1.094-2.967,1.969-4.783,2.269c-3.459,0.572-5.753-0.969-6.49-4.418c-0.449-2.103-0.235-4.194,0.217-6.269
	c0.515-2.357,1.292-4.616,2.691-6.615c1.261-1.801,2.853-3.146,5.093-3.518c1.648-0.273,3.271-0.071,4.856,0.413
	c0.833,0.254,1.643,0.582,2.526,0.899c0.13-0.218,0.28-0.489,0.446-0.751c0.267-0.425,0.678-0.659,1.144-0.491
	c1.077,0.387,2.166,0.773,3.18,1.296c0.938,0.483,1.068,0.926,0.764,1.942c-0.455,1.511-1.008,2.992-1.436,4.508
	c-0.606,2.143-1.163,4.299-1.678,6.464c-0.115,0.483-0.056,1.049,0.072,1.536c0.18,0.68,0.704,0.928,1.356,0.607
	c0.743-0.366,1.417-0.877,2.119-1.328c0.424-0.27,0.762-0.912,1.321-0.652c0.658,0.306,0.903,1.021,0.989,1.717
	c0.034,0.282-0.056,0.649-0.227,0.876c-1.614,2.147-3.736,3.475-6.409,3.886c-0.105,0.016-0.206,0.067-0.309,0.103
	C98.205,32,97.869,32,97.532,32z M96.18,15.49c-0.744-0.218-1.479-0.48-2.232-0.645c-1.992-0.432-2.92-0.107-3.959,1.54
	c-1.819,2.884-2.553,6.077-2.433,9.465c0.02,0.573,0.186,1.155,0.69,1.533c0.604,0.451,1.241,0.272,1.848,0.013
	c1.434-0.616,2.557-1.653,3.616-2.763c0.193-0.203,0.358-0.481,0.426-0.753C94.82,21.128,95.481,18.369,96.18,15.49z"/>
<path fill-rule="evenodd" clip-rule="evenodd" fill="#393939" d="M131.573,27.508c-1.588,2.412-3.799,3.919-6.653,4.339
	c-1.571,0.231-3.095-0.023-4.275-1.279c-0.693-0.736-0.918-1.644-0.971-2.607c-0.119-2.182,0.311-4.305,0.738-6.424
	c1.015-5.027,2.05-10.051,3.082-15.075c0.322-1.566,0.653-3.131,1.004-4.69c0.236-1.05,0.834-1.601,1.9-1.64
	c0.963-0.035,1.938,0.007,2.897,0.108c0.918,0.097,1.143,0.531,0.957,1.435c-0.841,4.096-1.676,8.194-2.496,12.294
	c-0.664,3.319-1.315,6.639-1.95,9.964c-0.144,0.748-0.25,1.511-0.283,2.271c-0.05,1.104,0.613,1.59,1.609,1.113
	c0.831-0.397,1.598-0.944,2.346-1.492c0.888-0.648,1.229-0.614,1.716,0.365c0.17,0.343,0.255,0.729,0.379,1.096
	C131.573,27.358,131.573,27.434,131.573,27.508z"/>
<path fill-rule="evenodd" clip-rule="evenodd" fill="#393939" d="M62.327,28.652c-1.193,0.768-2.315,1.565-3.508,2.238
	c-1.488,0.839-3.135,1.097-4.817,0.864c-2.083-0.287-3.358-1.563-3.976-3.532c-0.672-2.145-0.435-4.287,0.141-6.39
	c0.799-2.919,1.683-5.813,2.558-8.71c0.182-0.602,0.478-1.168,0.726-1.749c0.188-0.439,0.529-0.603,0.992-0.52
	c1.277,0.228,2.484,0.638,3.55,1.398c0.643,0.458,0.804,0.831,0.58,1.582c-0.743,2.49-1.554,4.96-2.253,7.462
	c-0.348,1.246-0.539,2.542-0.743,3.823c-0.066,0.412,0.012,0.86,0.094,1.279c0.206,1.049,0.93,1.456,2.012,1.063
	c1.655-0.604,2.924-1.764,4.106-3.023c0.08-0.087,0.117-0.236,0.128-0.36c0.277-2.851,1.182-5.554,1.978-8.279
	c0.374-1.281,0.839-2.536,1.296-3.79c0.325-0.891,0.669-1.149,1.57-0.862c1.123,0.357,2.203,0.873,3.262,1.397
	c0.647,0.321,0.813,0.929,0.59,1.63c-0.595,1.876-1.213,3.745-1.766,5.635c-0.427,1.46-0.81,2.937-1.123,4.424
	c-0.135,0.645-0.129,1.349-0.037,2.005c0.157,1.129,1.257,1.646,2.406,1.177c1.444-0.592,2.546-1.606,3.416-2.885
	c1.348-1.98,2.284-4.119,2.548-6.53c0.13-1.193-0.175-2.261-0.826-3.229c-0.882-1.31-0.301-2.198,0.67-2.687
	c0.886-0.446,1.837-0.802,2.799-1.048c0.941-0.241,1.535,0.438,2.003,1.133c1.211,1.799,1.279,3.753,0.705,5.782
	c-1.212,4.28-3.389,7.979-6.699,10.967C72.4,31,69.695,32.138,66.542,31.869c-1.895-0.162-3.335-1.095-4.083-2.927
	C62.411,28.825,62.354,28.713,62.327,28.652z"/>
<path fill-rule="evenodd" clip-rule="evenodd" fill="#393939" d="M38.241,14.837c-0.826,0-1.591,0.036-2.351-0.009
	c-0.885-0.053-1.195-0.499-0.998-1.347c0.101-0.433,0.221-0.863,0.362-1.284c0.231-0.69,0.471-0.855,1.183-0.86
	c0.729-0.005,1.459-0.013,2.188,0.003c0.315,0.007,0.448-0.083,0.512-0.422c0.232-1.241,0.526-2.47,0.765-3.71
	c0.281-1.458,0.912-1.784,2.337-1.908c0.811-0.071,1.642,0.017,2.457,0.104c0.881,0.094,1.186,0.48,1.052,1.359
	c-0.163,1.063-0.404,2.115-0.616,3.171c-0.091,0.452-0.193,0.902-0.303,1.413c1.319,0,2.588-0.006,3.857,0.004
	c0.334,0.002,0.672,0.027,1,0.087c0.605,0.11,0.785,0.343,0.753,0.954c-0.016,0.297-0.046,0.6-0.121,0.887
	c-0.36,1.374-0.369,1.523-2.083,1.637c-1.173,0.078-2.356,0.015-3.535,0.016c-0.183,0-0.367,0-0.608,0
	c-0.501,2.512-1.01,4.983-1.481,7.462c-0.209,1.096-0.355,2.203-0.501,3.311c-0.041,0.305-0.021,0.635,0.046,0.936
	c0.161,0.734,0.708,1.084,1.363,0.755c0.857-0.432,1.667-0.974,2.451-1.53c0.981-0.698,1.249-0.637,1.806,0.437
	c0.441,0.848,0.301,1.573-0.326,2.229C45.503,30.576,43.24,32,40.297,31.88c-2.521-0.103-3.988-1.546-4.087-4.09
	c-0.079-2.03,0.357-4.004,0.723-5.98c0.399-2.154,0.851-4.299,1.276-6.449C38.234,15.235,38.226,15.103,38.241,14.837z"/>
<path fill-rule="evenodd" clip-rule="evenodd" fill="#393939" d="M114.408,0.015c0.628,0.074,1.26,0.121,1.882,0.229
	c0.741,0.129,0.999,0.604,0.846,1.353c-0.886,4.314-1.77,8.628-2.639,12.946c-0.631,3.135-1.247,6.272-1.847,9.413
	c-0.144,0.749-0.243,1.512-0.275,2.272c-0.045,1.072,0.618,1.562,1.583,1.102c0.849-0.404,1.63-0.965,2.392-1.523
	c0.858-0.627,1.184-0.589,1.688,0.352c0.488,0.91,0.448,1.465-0.223,2.238c-1.591,1.832-3.53,3.106-5.965,3.441
	c-1.621,0.224-3.171-0.001-4.376-1.296c-0.674-0.725-0.895-1.617-0.946-2.562c-0.13-2.369,0.376-4.671,0.836-6.97
	c0.978-4.864,1.984-9.723,2.986-14.581c0.322-1.566,0.654-3.13,1.006-4.689c0.231-1.024,0.859-1.542,1.925-1.621
	c0.372-0.027,0.748-0.004,1.121-0.004C114.403,0.082,114.406,0.048,114.408,0.015z"/>
<g>
	<path fill-rule="evenodd" clip-rule="evenodd" fill="#393939" d="M26.314,32c-0.356-0.087-0.718-0.154-1.067-0.264
		c-1.489-0.473-2.518-1.922-2.648-3.542c-0.168-2.086,0.323-4.071,0.797-6.063c0.735-3.088,1.473-6.175,2.238-9.255
		c0.382-1.538,0.797-1.931,2.354-2.056c0.862-0.069,1.755,0.014,2.612,0.16c0.965,0.164,1.17,0.577,0.929,1.521
		c-0.634,2.482-1.3,4.957-1.904,7.445c-0.451,1.857-0.847,3.728-1.221,5.6c-0.133,0.668-0.12,1.427,0.508,1.835
		c0.635,0.414,1.251-0.025,1.789-0.391c0.601-0.407,1.179-0.852,1.752-1.297c0.567-0.44,0.888-0.407,1.295,0.174
		c0.021,0.03,0.044,0.06,0.065,0.091c0.688,1.036,0.696,1.766-0.159,2.657c-1.763,1.835-3.836,3.111-6.46,3.281
		c-0.145,0.009-0.287,0.068-0.43,0.104C26.614,32,26.464,32,26.314,32z"/>
	<path fill-rule="evenodd" clip-rule="evenodd" fill="#393939" d="M30.579,7.458c-0.762-0.205-1.545-0.354-2.28-0.632
		c-0.67-0.253-1.098-0.764-1.227-1.531c-0.165-0.98-0.098-1.927,0.206-2.86c0.156-0.479,0.461-0.847,0.967-1.006
		c1.649-0.518,3.285-0.539,4.903,0.129c0.541,0.223,0.938,0.629,0.981,1.188c0.066,0.862,0.075,1.744-0.03,2.6
		c-0.138,1.118-0.993,1.598-1.991,1.828c-0.486,0.112-0.994,0.132-1.492,0.193C30.603,7.396,30.59,7.427,30.579,7.458z"/>
</g>
</svg>
